# Blender 4.4.1
# www.blender.org
mtllib player.mtl
o Cube.001
v -0.697076 0.697076 -0.697076
v 0.697076 0.697076 -0.697076
v -0.697076 0.697076 0.697076
v 0.697076 0.697076 0.697076
v -0.697076 -0.697076 -0.697076
v 0.697076 -0.697076 -0.697076
v -0.697076 -0.697076 0.697076
v 0.697076 -0.697076 0.697076
v 0.849831 -0.849831 0.000000
v 0.849831 0.000000 -0.849831
v 0.000000 0.849831 -0.849831
v 0.000000 -0.849831 0.849831
v 0.000000 0.849831 0.849831
v 0.000000 -0.849831 -0.849831
v -0.849831 0.000000 0.849831
v -0.849831 0.849831 0.000000
v 0.849831 0.000000 0.849831
v -0.849831 -0.849831 0.000000
v -0.849831 0.000000 -0.849831
v 0.849831 0.849831 0.000000
v -0.997610 0.000000 0.000000
v 0.000000 0.000000 1.069998
v 0.000000 -1.022855 0.000000
v 0.997610 0.000000 0.000000
v 0.000000 1.022855 0.000000
v 0.000000 0.000000 -1.069998
vn -0.9565 0.2062 -0.2062
vn -0.9565 -0.2062 -0.2062
vn -0.9565 -0.2062 0.2062
vn -0.9565 0.2062 0.2062
vn 0.2502 0.2502 0.9353
vn -0.2502 0.2502 0.9353
vn -0.2502 -0.2502 0.9353
vn 0.2502 -0.2502 0.9353
vn 0.2219 -0.9495 0.2219
vn -0.2219 -0.9495 0.2219
vn -0.2219 -0.9495 -0.2219
vn 0.2219 -0.9495 -0.2219
vn 0.9565 -0.2062 -0.2062
vn 0.9565 0.2062 -0.2062
vn 0.9565 0.2062 0.2062
vn 0.9565 -0.2062 0.2062
vn 0.2219 0.9495 -0.2219
vn -0.2219 0.9495 -0.2219
vn -0.2219 0.9495 0.2219
vn 0.2219 0.9495 0.2219
vn 0.2502 -0.2502 -0.9353
vn -0.2502 -0.2502 -0.9353
vn -0.2502 0.2502 -0.9353
vn 0.2502 0.2502 -0.9353
vt 0.286418 0.526480
vt 0.135056 0.448595
vt 0.271289 0.406896
vt 0.061174 0.601950
vt 0.180320 0.583686
vt 0.138641 0.354908
vt 0.076693 0.196356
vt 0.194095 0.223672
vt 0.295511 0.288818
vt 0.533348 0.288818
vt 0.459323 0.131254
vt 0.594107 0.184714
vt 0.369536 0.131254
vt 0.414429 0.269128
vt 0.207635 0.067266
vt 0.307719 0.000091
vt 0.621224 0.067266
vt 0.828769 0.894042
vt 0.658203 0.911789
vt 0.750576 0.802307
vt 0.000091 0.894042
vt 0.170657 0.911789
vt 0.057724 0.999909
vt 0.181868 0.740669
vt 0.276526 0.815296
vt 0.646992 0.740669
vt 0.767686 0.601950
vt 0.693803 0.448595
vt 0.827659 0.497391
vt 0.542442 0.526480
vt 0.648540 0.583686
vt 0.690219 0.354908
vt 0.634764 0.223672
vt 0.752167 0.196356
vt 0.819954 0.296027
vt 0.414429 0.412373
vt 0.557570 0.406896
vt 0.403484 0.555200
vt 0.480674 0.689241
vt 0.610979 0.625637
vt 0.348186 0.689241
vt 0.001201 0.497391
vt 0.008906 0.296027
vt 0.234752 0.184714
vt 0.521140 0.000091
vt 0.771136 0.999909
vt 0.078282 0.802307
vt 0.552334 0.815296
vt 0.425376 0.555200
vt 0.217881 0.625637
s 1
usemtl Material.001
f 1/1/1 21/2/1 16/3/1
f 5/4/2 21/2/2 19/5/2
f 21/6/3 7/7/3 15/8/3
f 21/6/4 3/9/4 16/3/4
f 4/10/5 22/11/5 17/12/5
f 3/9/6 22/13/6 13/14/6
f 22/13/7 7/15/7 12/16/7
f 22/11/8 8/17/8 17/12/8
f 8/18/9 23/19/9 9/20/9
f 7/21/10 23/22/10 12/23/10
f 23/22/11 5/24/11 14/25/11
f 23/19/12 6/26/12 9/20/12
f 6/27/13 24/28/13 9/29/13
f 2/30/14 24/28/14 10/31/14
f 24/32/15 4/10/15 17/33/15
f 24/32/16 8/34/16 9/35/16
f 2/30/17 25/36/17 20/37/17
f 1/1/18 25/36/18 11/38/18
f 25/36/19 3/9/19 13/14/19
f 25/36/20 4/10/20 20/37/20
f 6/26/21 26/39/21 10/40/21
f 5/24/22 26/41/22 14/25/22
f 26/41/23 1/1/23 11/38/23
f 26/39/24 2/30/24 10/40/24
f 1/1/1 19/5/1 21/2/1
f 5/4/2 18/42/2 21/2/2
f 21/6/3 18/43/3 7/7/3
f 21/6/4 15/8/4 3/9/4
f 4/10/5 13/14/5 22/11/5
f 3/9/6 15/44/6 22/13/6
f 22/13/7 15/44/7 7/15/7
f 22/11/8 12/45/8 8/17/8
f 8/18/9 12/46/9 23/19/9
f 7/21/10 18/47/10 23/22/10
f 23/22/11 18/47/11 5/24/11
f 23/19/12 14/48/12 6/26/12
f 6/27/13 10/31/13 24/28/13
f 2/30/14 20/37/14 24/28/14
f 24/32/15 20/37/15 4/10/15
f 24/32/16 17/33/16 8/34/16
f 2/30/17 11/49/17 25/36/17
f 1/1/18 16/3/18 25/36/18
f 25/36/19 16/3/19 3/9/19
f 25/36/20 13/14/20 4/10/20
f 6/26/21 14/48/21 26/39/21
f 5/24/22 19/50/22 26/41/22
f 26/41/23 19/50/23 1/1/23
f 26/39/24 11/49/24 2/30/24
